<?xml version="1.0" encoding="UTF-8" standalone="no"?>
<!DOCTYPE svg PUBLIC "-//W3C//DTD SVG 1.1//EN" "http://www.w3.org/Graphics/SVG/1.1/DTD/svg11.dtd">
<svg width="100%" height="100%" viewBox="0 0 649 835" version="1.1" xmlns="http://www.w3.org/2000/svg" xmlns:xlink="http://www.w3.org/1999/xlink" xml:space="preserve" xmlns:serif="http://www.serif.com/" style="fill-rule:evenodd;clip-rule:evenodd;stroke-linejoin:round;stroke-miterlimit:2;">
    <g transform="matrix(1,0,0,1,-149.22,0)">
        <rect id="Artboard1" x="149.22" y="0" width="648.28" height="834.5" style="fill:none;"/>
        <clipPath id="_clip1">
            <rect id="Artboard11" serif:id="Artboard1" x="149.22" y="0" width="648.28" height="834.5"/>
        </clipPath>
        <g clip-path="url(#_clip1)">
            <g transform="matrix(1,0,0,1,0.220127,0)">
                <circle cx="496" cy="301.5" r="301.5" style="fill:rgb(151,151,159);"/>
            </g>
            <g transform="matrix(1,0,0,1,0.220127,0)">
                <circle cx="496" cy="301.5" r="248.898" style="fill-opacity:0.05;"/>
            </g>
            <g transform="matrix(1,0,0,1,0.220127,0)">
                <circle cx="496" cy="301.5" r="203.994" style="fill-opacity:0.05;"/>
            </g>
            <g transform="matrix(1,0,0,1,0.220127,0)">
                <circle cx="496" cy="301.5" r="146.26" style="fill:rgb(7,0,0);fill-opacity:0.05;"/>
            </g>
            <g transform="matrix(1,0,0,1,-201.03,-32.75)">
                <path d="M398.42,361.232C398.42,361.232 374.716,427.954 385.251,451.658C395.787,475.362 412.467,498.188 412.467,498.188C412.467,498.188 406.322,365.622 398.42,361.232Z" style="fill:rgb(208,205,225);fill-rule:nonzero;"/>
            </g>
            <g transform="matrix(1,0,0,1,-201.03,-32.75)">
                <path d="M398.42,361.232C398.42,361.232 374.716,427.954 385.251,451.658C395.787,475.362 412.467,498.188 412.467,498.188C412.467,498.188 406.322,365.622 398.42,361.232Z" style="fill-opacity:0.1;fill-rule:nonzero;"/>
            </g>
            <g transform="matrix(1,0,0,1,-201.03,-32.75)">
                <path d="M415.101,515.747C415.101,515.747 413.345,532.427 412.467,533.305C411.589,534.183 413.345,535.939 412.467,538.573C411.589,541.207 410.711,544.718 412.467,545.596C414.223,546.474 402.81,623.731 402.81,623.731C402.81,623.731 374.716,660.604 386.129,718.547L389.641,777.368C389.641,777.368 416.857,779.124 416.857,769.467C416.857,769.467 415.101,758.054 415.101,752.786C415.101,747.519 419.49,747.519 416.857,744.885C414.223,742.251 414.223,740.495 414.223,740.495C414.223,740.495 418.613,736.984 417.735,736.106C416.857,735.228 425.636,672.895 425.636,672.895C425.636,672.895 435.293,663.238 435.293,657.97L435.293,652.703C435.293,652.703 439.683,641.29 439.683,640.412C439.683,639.534 463.387,585.981 463.387,585.981L473.044,624.609L483.579,679.919C483.579,679.919 488.846,729.96 499.382,749.275C499.382,749.275 517.818,812.485 517.818,810.729C517.818,808.973 548.545,804.584 547.667,796.682C546.789,788.781 529.231,678.163 529.231,678.163L533.621,513.991L415.101,515.747Z" style="fill:rgb(47,46,65);fill-rule:nonzero;"/>
            </g>
            <g transform="matrix(1,0,0,1,-201.03,-32.75)">
                <path d="M391.397,772.978C391.397,772.978 367.693,819.508 383.496,821.264C399.298,823.02 405.444,823.02 412.467,815.997C416.307,812.157 424.082,807.005 430.343,803.124C437.9,798.514 442.172,789.952 441.312,781.142C440.849,776.847 439.244,773.308 435.293,772.978C424.758,772.101 412.467,762.443 412.467,762.443L391.397,772.978Z" style="fill:rgb(47,46,65);fill-rule:nonzero;"/>
            </g>
            <g transform="matrix(1,0,0,1,-201.03,-32.75)">
                <path d="M522.208,807.217C522.208,807.217 498.504,853.747 514.306,855.503C530.109,857.259 536.254,857.259 543.278,850.236C547.117,846.396 554.893,841.244 561.153,837.363C568.71,832.753 572.983,824.191 572.122,815.381C571.659,811.086 570.054,807.547 566.104,807.217C555.569,806.34 543.278,796.682 543.278,796.682L522.208,807.217Z" style="fill:rgb(47,46,65);fill-rule:nonzero;"/>
            </g>
            <g transform="matrix(1,0,0,1,0.220127,0)">
                <circle cx="295.905" cy="215.433" r="36.905" style="fill:rgb(255,184,184);"/>
            </g>
            <g transform="matrix(1,0,0,1,-201.03,-32.75)">
                <path d="M473.43,260.308C473.43,260.308 447.07,308.812 444.961,308.812C442.852,308.812 492.41,324.628 492.41,324.628C492.41,324.628 506.117,278.233 508.226,274.016L473.43,260.308Z" style="fill:rgb(255,184,184);fill-rule:nonzero;"/>
            </g>
            <g transform="matrix(1,0,0,1,-201.03,-32.75)">
                <path d="M513.867,313.385C513.867,313.385 461.192,284.414 455.924,285.292C450.657,286.17 394.47,335.333 395.348,355.526C396.225,375.718 403.249,409.079 403.249,409.079C403.249,409.079 405.883,502.139 411.15,503.017C416.418,503.895 410.272,519.697 412.028,519.697C413.784,519.697 534.937,519.697 535.815,517.064C536.693,514.43 513.867,313.385 513.867,313.385Z" style="fill:rgb(208,205,225);fill-rule:nonzero;"/>
            </g>
            <g transform="matrix(1,0,0,1,-201.03,-32.75)">
                <path d="M543.278,521.892C543.278,521.892 559.958,572.812 545.911,571.056C531.865,569.3 525.719,527.16 525.719,527.16L543.278,521.892Z" style="fill:rgb(255,184,184);fill-rule:nonzero;"/>
            </g>
            <g transform="matrix(1,0,0,1,-201.03,-32.75)">
                <path d="M498.504,310.313C498.504,310.313 466.02,317.336 471.288,361.232C476.556,405.128 486.213,449.025 486.213,449.025L518.696,520.136L522.208,533.305L545.911,527.16L528.353,425.321C528.353,425.321 522.208,316.458 514.306,312.946C509.324,310.822 503.905,309.919 498.504,310.313Z" style="fill:rgb(208,205,225);fill-rule:nonzero;"/>
            </g>
            <g transform="matrix(1,0,0,1,0.220127,0)">
                <path d="M277.5,414.958L317.885,486.947L283.86,411.09L277.5,414.958Z" style="fill-opacity:0.1;fill-rule:nonzero;"/>
            </g>
            <g transform="matrix(1,0,0,1,-201.03,-32.75)">
                <path d="M533.896,237.316L534.018,234.496L539.628,235.892C539.507,234.061 538.587,232.372 537.114,231.277L543.09,230.943C532.962,216.55 517.369,206.913 499.966,204.291C487.04,202.418 472.647,205.129 463.784,214.722C459.484,219.375 456.783,225.292 454.861,231.329C451.322,242.447 450.601,255.701 457.981,264.738C465.482,273.923 478.583,275.723 490.387,276.859C494.54,277.259 498.893,277.631 502.741,276.02C503.17,271.606 502.605,267.151 501.088,262.983C500.456,261.693 500.154,260.266 500.209,258.831C500.733,255.319 505.418,254.434 508.936,254.909C512.455,255.383 516.686,256.109 518.998,253.414C520.591,251.558 520.497,248.855 520.708,246.419C521.282,239.785 533.836,238.707 533.896,237.316Z" style="fill:rgb(47,46,65);fill-rule:nonzero;"/>
            </g>
        </g>
    </g>
</svg>
